<svg width="63" height="63" viewBox="0 0 63 63" fill="none" xmlns="http://www.w3.org/2000/svg">
<g id="Combined Shape Copy 3">
<mask id="path-1-inside-1_4261_829" fill="white">
<path fill-rule="evenodd" clip-rule="evenodd" d="M47.6081 1.17156C49.1701 -0.390389 51.7022 -0.390304 53.2643 1.17156L61.4626 9.36882C63.0246 10.9309 63.0246 13.4639 61.4626 15.0261L45.1716 31.3171L61.4626 47.6081C63.0245 49.1701 63.0244 51.7023 61.4626 53.2643L53.2643 61.4626C51.7023 63.0244 49.1701 63.0245 47.6081 61.4626L31.3171 45.1716L15.026 61.4626C13.4639 63.0246 10.9309 63.0246 9.36882 61.4626L1.17156 53.2643C-0.390304 51.7022 -0.390389 49.1701 1.17156 47.6081L17.4626 31.3171L1.17156 15.0261C-0.390509 13.464 -0.39053 10.9309 1.17156 9.36882L9.36882 1.17156C10.9309 -0.390529 13.464 -0.39051 15.026 1.17156L31.3171 17.4626L47.6081 1.17156Z"/>
</mask>
<path d="M47.6081 1.17156L46.1939 -0.242695L46.1939 -0.242655L47.6081 1.17156ZM53.2643 1.17156L54.6785 -0.24274L54.6784 -0.242757L53.2643 1.17156ZM61.4626 9.36882L62.8768 7.95461L62.8767 7.95453L61.4626 9.36882ZM61.4626 15.0261L62.8768 16.4403L62.8768 16.4402L61.4626 15.0261ZM45.1716 31.3171L43.7573 29.9029L42.3431 31.3171L43.7573 32.7313L45.1716 31.3171ZM61.4626 47.6081L62.8769 46.1939L62.8768 46.1939L61.4626 47.6081ZM61.4626 53.2643L62.8768 54.6785L62.8769 54.6784L61.4626 53.2643ZM53.2643 61.4626L54.6784 62.8769L54.6785 62.8768L53.2643 61.4626ZM47.6081 61.4626L46.1939 62.8768L46.1939 62.8769L47.6081 61.4626ZM31.3171 45.1716L32.7313 43.7573L31.3171 42.3431L29.9029 43.7573L31.3171 45.1716ZM15.026 61.4626L16.4402 62.8768L16.4403 62.8768L15.026 61.4626ZM9.36882 61.4626L7.95452 62.8767L7.95461 62.8768L9.36882 61.4626ZM1.17156 53.2643L-0.242759 54.6784L-0.242741 54.6785L1.17156 53.2643ZM1.17156 47.6081L-0.242657 46.1939L-0.242696 46.1939L1.17156 47.6081ZM17.4626 31.3171L18.8768 32.7313L20.291 31.3171L18.8768 29.9029L17.4626 31.3171ZM1.17156 15.0261L-0.242672 16.4402L-0.242657 16.4403L1.17156 15.0261ZM15.026 1.17156L16.4403 -0.242655L16.4402 -0.24267L15.026 1.17156ZM31.3171 17.4626L29.9029 18.8768L31.3171 20.291L32.7313 18.8768L31.3171 17.4626ZM47.6081 1.17156L49.0223 2.58581C49.8032 1.80492 51.0691 1.80486 51.8502 2.58587L53.2643 1.17156L54.6784 -0.242757C52.3354 -2.58547 48.537 -2.5857 46.1939 -0.242695L47.6081 1.17156ZM53.2643 1.17156L51.8502 2.58586L60.0484 10.7831L61.4626 9.36882L62.8767 7.95453L54.6785 -0.24274L53.2643 1.17156ZM61.4626 9.36882L60.0484 10.783C60.8293 11.564 60.8294 12.8308 60.0483 13.6119L61.4626 15.0261L62.8768 16.4402C65.2198 14.0971 65.2199 10.2978 62.8768 7.95461L61.4626 9.36882ZM61.4626 15.0261L60.0484 13.6118L43.7573 29.9029L45.1716 31.3171L46.5858 32.7313L62.8768 16.4403L61.4626 15.0261ZM45.1716 31.3171L43.7573 32.7313L60.0484 49.0223L61.4626 47.6081L62.8768 46.1939L46.5858 29.9029L45.1716 31.3171ZM61.4626 47.6081L60.0483 49.0222C60.8291 49.8032 60.8292 51.0691 60.0482 51.8502L61.4626 53.2643L62.8769 54.6784C65.2195 52.3354 65.2197 48.537 62.8769 46.1939L61.4626 47.6081ZM61.4626 53.2643L60.0484 51.8501L51.8501 60.0484L53.2643 61.4626L54.6785 62.8768L62.8768 54.6785L61.4626 53.2643ZM53.2643 61.4626L51.8502 60.0482C51.0691 60.8292 49.8032 60.8292 49.0222 60.0483L47.6081 61.4626L46.1939 62.8769C48.537 65.2198 52.3354 65.2195 54.6784 62.8769L53.2643 61.4626ZM47.6081 61.4626L49.0223 60.0484L32.7313 43.7573L31.3171 45.1716L29.9029 46.5858L46.1939 62.8768L47.6081 61.4626ZM31.3171 45.1716L29.9029 43.7573L13.6118 60.0484L15.026 61.4626L16.4403 62.8768L32.7313 46.5858L31.3171 45.1716ZM15.026 61.4626L13.6119 60.0483C12.8308 60.8294 11.564 60.8293 10.783 60.0484L9.36882 61.4626L7.95461 62.8768C10.2978 65.2199 14.0971 65.2198 16.4402 62.8768L15.026 61.4626ZM9.36882 61.4626L10.7831 60.0484L2.58585 51.8502L1.17156 53.2643L-0.242741 54.6785L7.95452 62.8767L9.36882 61.4626ZM1.17156 53.2643L2.58587 51.8502C1.80486 51.0691 1.80492 49.8032 2.58581 49.0223L1.17156 47.6081L-0.242696 46.1939C-2.5857 48.537 -2.58547 52.3354 -0.242759 54.6784L1.17156 53.2643ZM1.17156 47.6081L2.58577 49.0223L18.8768 32.7313L17.4626 31.3171L16.0484 29.9029L-0.242657 46.1939L1.17156 47.6081ZM17.4626 31.3171L18.8768 29.9029L2.58577 13.6118L1.17156 15.0261L-0.242657 16.4403L16.0484 32.7313L17.4626 31.3171ZM1.17156 15.0261L2.58579 13.6119C1.80473 12.8308 1.80475 11.5641 2.58577 10.783L1.17156 9.36882L-0.242657 7.95461C-2.58581 10.2978 -2.58575 14.0971 -0.242672 16.4402L1.17156 15.0261ZM1.17156 9.36882L2.58577 10.783L10.783 2.58577L9.36882 1.17156L7.95461 -0.242655L-0.242657 7.95461L1.17156 9.36882ZM9.36882 1.17156L10.783 2.58577C11.5641 1.80475 12.8308 1.80473 13.6118 2.58579L15.026 1.17156L16.4402 -0.24267C14.0971 -2.58575 10.2978 -2.58581 7.95461 -0.242655L9.36882 1.17156ZM15.026 1.17156L13.6118 2.58577L29.9029 18.8768L31.3171 17.4626L32.7313 16.0484L16.4403 -0.242655L15.026 1.17156ZM31.3171 17.4626L32.7313 18.8768L49.0223 2.58577L47.6081 1.17156L46.1939 -0.242655L29.9029 16.0484L31.3171 17.4626Z" fill="#1A2A33" mask="url(#path-1-inside-1_4261_829)"/>
</g>
</svg>
