<svg width="64" height="64" viewBox="0 0 64 64" fill="none" xmlns="http://www.w3.org/2000/svg">
<path fill-rule="evenodd" clip-rule="evenodd" d="M48.7293 0.87868C49.9008 -0.292888 51.7999 -0.292892 52.9715 0.87868L62.5838 10.49C63.7553 11.6616 63.7553 13.5616 62.5838 14.7332L45.5857 31.7312L62.5838 48.7293C63.7551 49.9008 63.7551 51.7999 62.5838 52.9715L52.9715 62.5838C51.7999 63.7551 49.9008 63.7551 48.7293 62.5838L31.7312 45.5857L14.7332 62.5838C13.5616 63.7553 11.6616 63.7553 10.49 62.5838L0.87868 52.9715C-0.292892 51.7999 -0.292888 49.9008 0.87868 48.7293L17.8767 31.7312L0.87868 14.7332C-0.292893 13.5616 -0.292893 11.6616 0.87868 10.49L10.49 0.87868C11.6616 -0.292893 13.5616 -0.292893 14.7332 0.87868L31.7312 17.8767L48.7293 0.87868Z" fill="#1A2A33"/>
</svg>
